mtllib Texture.mtl
o 4_5
v 117.233208 26.802477 -15.360092 
v 117.233528 26.952576 -15.360147 
v 115.306610 26.799696 -15.036674 
v 113.516556 27.571629 -14.736177 
v 113.377075 26.796520 -14.712763 
v 117.234512 27.491417 -15.360312 
v 114.134911 31.012762 -14.839981 
v 114.442291 32.866749 -14.891581 
v 117.244308 32.877869 -15.361957 
v 114.532448 33.160591 -14.906715 
v 115.900787 33.168537 -15.136419 
v 115.391212 33.278923 -15.050877 
v 117.244637 33.283291 -15.362011 
v 117.244637 33.375416 -15.362011 
v 114.903198 33.384151 -14.968953 
v 114.714714 33.348812 -14.937313 
v 114.624237 33.276939 -14.922124 
v 117.244637 33.176079 -15.362011 
v 117.625839 26.811609 -15.426004 
v 117.626823 26.983946 -15.426168 
v 120.557541 26.945032 -15.918150 
v 120.555580 27.419943 -15.917821 
v 120.558197 26.801287 -15.918260 
v 122.458328 26.794931 -16.237236 
v 122.482826 26.919617 -16.241348 
v 122.555344 26.858465 -16.253521 
v 122.572655 26.918427 -16.256428 
v 122.572655 27.376661 -16.256428 
v 122.575272 32.898518 -16.256866 
v 120.532059 32.890575 -15.913873 
v 120.530754 33.194344 -15.913653 
v 117.657524 33.178463 -15.431323 
v 117.658180 33.284485 -15.431433 
v 120.530426 33.291237 -15.913598 
v 117.658501 33.374622 -15.431487 
v 120.530098 33.382168 -15.913544 
v 122.226074 33.386932 -16.198248 
v 122.423698 33.295998 -16.231422 
v 122.538681 33.205463 -16.250725 
v 122.573311 33.106987 -16.256536 
v 117.629105 27.483078 -15.426553 
v 117.655891 32.879456 -15.431048 
v 115.428802 26.802477 -26.108881 
v 113.502213 26.799696 -25.785463 
v 115.429131 26.952576 -26.108934 
v 111.712158 27.571629 -25.484966 
v 115.430107 27.491417 -26.109100 
v 112.330833 31.012762 -25.588823 
v 112.637886 32.866749 -25.640368 
v 115.439911 32.877869 -26.110744 
v 112.728043 33.160591 -25.655502 
v 114.096390 33.168537 -25.885208 
v 113.586815 33.278923 -25.799665 
v 115.440231 33.283291 -26.110800 
v 115.440231 33.375416 -26.110800 
v 113.098793 33.384151 -25.717741 
v 112.910316 33.348812 -25.686100 
v 112.819832 33.276939 -25.670912 
v 111.572678 26.796520 -25.461552 
v 115.440231 33.176079 -26.110800 
v 115.851486 32.879456 -26.179836 
v 115.824707 27.483078 -26.175341 
v 118.727661 32.890575 -26.662661 
v 118.751175 27.419943 -26.666609 
v 120.770866 32.898518 -27.005653 
v 120.768257 27.376661 -27.005215 
v 118.753136 26.945032 -26.666937 
v 115.822418 26.983946 -26.174957 
v 115.821434 26.811609 -26.174791 
v 118.753792 26.801287 -26.667048 
v 120.653923 26.794931 -26.986023 
v 120.678421 26.919617 -26.990135 
v 120.750938 26.858465 -27.002310 
v 120.768257 26.918427 -27.005215 
v 115.853119 33.178463 -26.180111 
v 118.726349 33.194344 -26.662441 
v 115.853775 33.284485 -26.180220 
v 120.734283 33.205463 -26.999512 
v 120.768906 33.106987 -27.005325 
v 120.619301 33.295998 -26.980211 
v 118.726028 33.291237 -26.662386 
v 115.854103 33.374622 -26.180275 
v 118.725700 33.382168 -26.662331 
v 120.421677 33.386932 -26.947035 
v 111.828972 32.832996 -24.579014 
v 112.582375 32.846897 -20.105030 
v 110.724472 26.567005 -24.402149 
v 111.476982 26.567005 -19.919468 
v 113.331642 32.859207 -15.655658 
v 112.224579 26.567005 -15.466054 
vn 21.108360 0.000000 125.742073 
vn 21.108360 0.000000 125.742073 
vn 21.108360 -0.000000 125.742073 
vn 21.108360 -0.000000 125.742073 
vn 21.108360 -0.000000 125.742073 
vn 21.108360 -0.000000 125.742073 
vn 21.108360 -0.000000 125.742073 
vn 21.108360 -0.000000 125.742073 
vn 21.108360 -0.000000 125.742073 
vn 21.108360 0.000000 125.742073 
vn 21.108360 0.000000 125.742073 
vn 21.108360 0.000000 125.742073 
vn 21.108360 0.000000 125.742073 
vn 21.108360 0.000000 125.742073 
vn 21.108360 0.000000 125.742073 
vn 21.108360 0.000000 125.742073 
vn 21.108360 0.000000 125.742073 
vn 21.108360 0.000000 125.742073 
vn 21.108360 0.000000 125.742073 
vn 21.108360 -0.000000 125.742073 
vn 21.108360 -0.000000 125.742073 
vn 21.108360 -0.000000 125.742073 
vn 21.108360 -0.000000 125.742073 
vn 21.108360 -0.000000 125.742073 
vn 21.108360 -0.000000 125.742073 
vn 21.108360 -0.000000 125.742073 
vn 21.108360 -0.000000 125.742073 
vn 21.108360 -0.000000 125.742073 
vn 21.108360 -0.000000 125.742073 
vn 21.108360 -0.000000 125.742073 
vn 21.108360 0.000000 125.742073 
vn 21.108360 0.000000 125.742073 
vn 21.108360 0.000000 125.742073 
vn 21.108360 0.000000 125.742073 
vn 21.108360 0.000000 125.742073 
vn 21.108360 -0.000000 125.742073 
vn 21.108360 0.000000 125.742073 
vn 21.108360 0.000000 125.742073 
vn 21.108360 -0.000000 125.742073 
vn 21.108360 -0.000000 125.742073 
vn 21.108360 -0.000000 125.742073 
vn 21.108360 -0.000000 125.742073 
vn -21.108360 0.000000 -125.742073 
vn -21.108360 0.000000 -125.742073 
vn -21.108360 0.000000 -125.742073 
vn -21.108360 0.000000 -125.742073 
vn -21.108360 0.000000 -125.742073 
vn -21.108360 0.000000 -125.742073 
vn -21.108360 0.000000 -125.742073 
vn -21.108360 0.000000 -125.742073 
vn -21.108360 0.000000 -125.742073 
vn -21.108360 0.000000 -125.742073 
vn -21.108360 0.000000 -125.742073 
vn -21.108360 0.000000 -125.742073 
vn -21.108360 0.000000 -125.742073 
vn -21.108360 0.000000 -125.742073 
vn -21.108360 0.000000 -125.742073 
vn -21.108360 0.000000 -125.742073 
vn -21.108360 0.000000 -125.742073 
vn -21.108360 0.000000 -125.742073 
vn -21.108360 0.000000 -125.742073 
vn -21.108360 0.000000 -125.742073 
vn -21.108360 0.000000 -125.742073 
vn -21.108360 0.000000 -125.742073 
vn -21.108360 0.000000 -125.742073 
vn -21.108360 0.000000 -125.742073 
vn -21.108360 0.000000 -125.742073 
vn -21.108360 0.000000 -125.742073 
vn -21.108360 0.000000 -125.742073 
vn -21.108360 0.000000 -125.742073 
vn -21.108360 0.000000 -125.742073 
vn -21.108360 0.000000 -125.742073 
vn -21.108360 0.000000 -125.742073 
vn -21.108360 0.000000 -125.742073 
vn -21.108360 0.000000 -125.742073 
vn -21.108360 0.000000 -125.742073 
vn -21.108360 0.000000 -125.742073 
vn -21.108360 0.000000 -125.742073 
vn -21.108360 0.000000 -125.742073 
vn -21.108360 0.000000 -125.742073 
vn -21.108360 0.000000 -125.742073 
vn -21.108360 0.000000 -125.742073 
vn -21.108360 0.000000 -125.742073 
vn -21.108360 0.000000 -125.742073 
vn -123.897430 22.035242 20.516251 
vn -123.897430 22.035242 20.516251 
vn -123.897430 22.035242 20.516251 
vn -123.897430 22.035242 20.516251 
vn -123.897430 22.035242 20.516251 
vn -123.897430 22.035242 20.516251 
s on 
f 1//1 2//2 3//3 
f 2//2 4//4 3//3 
f 3//3 4//4 5//5 
f 4//4 5//5 5//5 
f 5//5 5//5 2//2 
f 5//5 2//2 2//2 
f 2//2 2//2 4//4 
f 2//2 6//6 4//4 
f 4//4 6//6 7//7 
f 6//6 6//6 7//7 
f 7//7 6//6 8//8 
f 6//6 9//9 8//8 
f 8//8 9//9 10//10 
f 9//9 11//11 10//10 
f 10//10 11//11 12//12 
f 11//11 13//13 12//12 
f 12//12 13//13 12//12 
f 13//13 14//14 12//12 
f 12//12 14//14 12//12 
f 14//14 15//15 12//12 
f 12//12 15//15 12//12 
f 15//15 16//16 12//12 
f 12//12 16//16 12//12 
f 16//16 17//17 12//12 
f 12//12 17//17 10//10 
f 17//17 10//10 10//10 
f 10//10 10//10 9//9 
f 10//10 9//9 9//9 
f 9//9 9//9 11//11 
f 9//9 18//18 11//11 
f 11//11 18//18 13//13 
f 18//18 13//13 13//13 
f 13//13 13//13 19//19 
f 13//13 19//19 19//19 
f 19//19 19//19 20//20 
f 19//19 21//21 20//20 
f 20//20 21//21 22//22 
f 21//21 22//22 22//22 
f 22//22 22//22 19//19 
f 22//22 19//19 19//19 
f 19//19 19//19 21//21 
f 19//19 23//23 21//21 
f 21//21 23//23 21//21 
f 23//23 24//24 21//21 
f 21//21 24//24 25//25 
f 24//24 26//26 25//25 
f 25//25 26//26 25//25 
f 26//26 27//27 25//25 
f 25//25 27//27 25//25 
f 27//27 28//28 25//25 
f 25//25 28//28 21//21 
f 28//28 28//28 21//21 
f 21//21 28//28 22//22 
f 28//28 29//29 22//22 
f 22//22 29//29 30//30 
f 29//29 31//31 30//30 
f 30//30 31//31 32//32 
f 31//31 31//31 32//32 
f 32//32 31//31 33//33 
f 31//31 34//34 33//33 
f 33//33 34//34 35//35 
f 34//34 34//34 35//35 
f 35//35 34//34 36//36 
f 34//34 34//34 36//36 
f 36//36 34//34 37//37 
f 34//34 34//34 37//37 
f 37//37 34//34 38//38 
f 34//34 31//31 38//38 
f 38//38 31//31 39//39 
f 31//31 29//29 39//39 
f 39//39 29//29 40//40 
f 29//29 40//40 40//40 
f 40//40 40//40 20//20 
f 40//40 20//20 20//20 
f 20//20 20//20 41//41 
f 20//20 22//22 41//41 
f 41//41 22//22 41//41 
f 22//22 30//30 41//41 
f 41//41 30//30 42//42 
f 30//30 32//32 42//42 
f 42//42 32//32 32//32 
f 32//32 43//43 32//32 
f 32//32 43//43 43//43 
f 43//43 44//44 43//43 
f 43//43 44//44 45//45 
f 44//44 46//46 45//45 
f 45//45 46//46 47//47 
f 46//46 48//48 47//47 
f 47//47 48//48 47//47 
f 48//48 49//49 47//47 
f 47//47 49//49 50//50 
f 49//49 51//51 50//50 
f 50//50 51//51 52//52 
f 51//51 53//53 52//52 
f 52//52 53//53 54//54 
f 53//53 53//53 54//54 
f 54//54 53//53 55//55 
f 53//53 53//53 55//55 
f 55//55 53//53 56//56 
f 53//53 53//53 56//56 
f 56//56 53//53 57//57 
f 53//53 53//53 57//57 
f 57//57 53//53 58//58 
f 53//53 51//51 58//58 
f 58//58 51//51 51//51 
f 51//51 46//46 51//51 
f 51//51 46//46 46//46 
f 46//46 44//44 46//46 
f 46//46 44//44 59//59 
f 44//44 59//59 59//59 
f 59//59 59//59 50//50 
f 59//59 50//50 50//50 
f 50//50 50//50 60//60 
f 50//50 52//52 60//60 
f 60//60 52//52 54//54 
f 52//52 54//54 54//54 
f 54//54 54//54 61//61 
f 54//54 61//61 61//61 
f 61//61 61//61 62//62 
f 61//61 63//63 62//62 
f 62//62 63//63 64//64 
f 63//63 65//65 64//64 
f 64//64 65//65 64//64 
f 65//65 66//66 64//64 
f 64//64 66//66 64//64 
f 66//66 67//67 64//64 
f 64//64 67//67 68//68 
f 67//67 67//67 68//68 
f 68//68 67//67 69//69 
f 67//67 67//67 69//69 
f 69//69 67//67 70//70 
f 67//67 67//67 70//70 
f 70//70 67//67 71//71 
f 67//67 72//72 71//71 
f 71//71 72//72 73//73 
f 72//72 72//72 73//73 
f 73//73 72//72 74//74 
f 72//72 72//72 74//74 
f 74//74 72//72 66//66 
f 72//72 67//67 66//66 
f 66//66 67//67 67//67 
f 67//67 68//68 67//67 
f 67//67 68//68 68//68 
f 68//68 62//62 68//68 
f 68//68 62//62 64//64 
f 62//62 64//64 64//64 
f 64//64 64//64 61//61 
f 64//64 61//61 61//61 
f 61//61 61//61 63//63 
f 61//61 75//75 63//63 
f 63//63 75//75 76//76 
f 75//75 77//77 76//76 
f 76//76 77//77 77//77 
f 77//77 63//63 77//77 
f 77//77 63//63 63//63 
f 63//63 76//76 63//63 
f 63//63 76//76 65//65 
f 76//76 78//78 65//65 
f 65//65 78//78 79//79 
f 78//78 79//79 79//79 
f 79//79 79//79 78//78 
f 79//79 78//78 78//78 
f 78//78 78//78 80//80 
f 78//78 76//76 80//80 
f 80//80 76//76 81//81 
f 76//76 77//77 81//81 
f 81//81 77//77 81//81 
f 77//77 82//82 81//81 
f 81//81 82//82 81//81 
f 82//82 83//83 81//81 
f 81//81 83//83 81//81 
f 83//83 84//84 81//81 
f 81//81 84//84 80//80 
f 84//84 80//80 80//80 
f 80//80 80//80 85//85 
f 80//80 85//85 85//85 
f 85//85 85//85 86//86 
f 85//85 87//87 86//86 
f 86//86 87//87 86//86 
f 87//87 88//88 86//86 
f 86//86 88//88 89//89 
f 88//88 90//90 89//89 

