mtllib Texture.mtl
o 6_6
v -63.983017 9.265224 -65.897881 
v -64.016296 11.102593 -65.250916 
v -63.800648 9.270049 -65.163422 
v -64.084015 11.109347 -64.666595 
v -64.370224 11.107417 -64.008682 
v -63.858746 9.278734 -64.607513 
v -64.175522 9.272944 -63.879807 
v -65.916222 10.994512 -62.051796 
v -63.983017 9.265224 -65.897881 
v -64.170464 11.092943 -65.886017 
v -64.016296 11.102593 -65.250916 
v -64.084015 11.109347 -64.666595 
v -63.800648 9.270049 -65.163422 
v -63.858746 9.278734 -64.607513 
v -65.916222 10.994512 -62.051796 
v -65.997437 9.117579 -61.758350 
v -64.175522 9.272944 -63.879807 
v -65.567413 11.051448 -67.938354 
v -64.490067 9.241099 -66.795074 
v -64.551041 11.081363 -66.590508 
v -64.490067 9.241099 -66.795074 
v -65.430382 9.220835 -68.060867 
v -65.567413 11.051448 -67.938354 
v -66.172974 10.992581 -61.825089 
v -65.997437 9.117579 -61.758350 
v -66.234810 9.111789 -61.546139 
v -65.997437 9.117579 -61.758350 
v -65.916222 10.994512 -62.051796 
v -66.172974 10.992581 -61.825089 
v -64.490067 9.241099 -66.795074 
v -63.983017 9.265224 -65.897881 
v -64.551041 11.081363 -66.590508 
v -64.170464 11.092943 -65.886017 
v -82.271393 11.102593 -48.930611 
v -82.918022 9.265224 -48.969719 
v -82.885323 11.092943 -49.154675 
v -82.918022 9.265224 -48.969719 
v -82.208496 9.270049 -48.706547 
v -82.271393 11.102593 -48.930611 
v -81.683159 11.109347 -48.932716 
v -81.649582 9.278734 -48.702263 
v -80.997421 11.107417 -49.143738 
v -80.891075 9.272944 -48.935875 
v -78.880272 10.994512 -50.461761 
v -82.208496 9.270049 -48.706547 
v -81.683159 11.109347 -48.932716 
v -81.649582 9.278734 -48.702263 
v -80.891075 9.272944 -48.935875 
v -78.579597 9.117579 -50.509731 
v -78.880272 10.994512 -50.461761 
v -84.768997 11.051448 -50.771877 
v -83.753052 9.241099 -49.573700 
v -84.906029 9.220835 -50.649368 
v -83.753052 9.241099 -49.573700 
v -83.542953 11.081363 -49.611473 
v -84.768997 11.051448 -50.771877 
v -78.626335 10.992581 -50.691612 
v -78.579597 9.117579 -50.509731 
v -78.880272 10.994512 -50.461761 
v -78.579597 9.117579 -50.509731 
v -78.342224 9.111789 -50.721943 
v -78.626335 10.992581 -50.691612 
v -82.885323 11.092943 -49.154675 
v -82.918022 9.265224 -48.969719 
v -83.542953 11.081363 -49.611473 
v -83.753052 9.241099 -49.573700 
vn 87.888489 8.893305 -34.419514 
vn 93.997635 10.541557 -6.448977 
vn 93.950790 10.953137 -6.445761 
vn 90.925850 11.775661 24.128855 
vn 80.646988 11.775659 48.433968 
vn 90.925850 11.775661 24.128855 
vn 80.062378 10.953133 49.583256 
vn 68.209000 8.480786 65.299988 
vn 87.888489 8.893305 -34.419514 
vn 87.866264 9.305643 -34.367218 
vn 93.997635 10.541557 -6.448977 
vn 90.925850 11.775661 24.128855 
vn 93.950790 10.953137 -6.445761 
vn 90.925850 11.775661 24.128855 
vn 68.209000 8.480786 65.299988 
vn 66.878601 7.655292 66.761742 
vn 80.062378 10.953133 49.583256 
vn 75.361374 8.893309 -56.830574 
vn 78.698341 8.480800 -52.180382 
vn 79.480270 8.480799 -50.981472 
vn 78.698341 8.480800 -52.180382 
vn 75.764198 9.305647 -56.225735 
vn 75.361374 8.893309 -56.830574 
vn 62.534340 8.480786 70.753189 
vn 66.878601 7.655292 66.761742 
vn 62.534340 8.480786 70.753189 
vn 66.878601 7.655292 66.761742 
vn 68.209000 8.480786 65.299988 
vn 62.534340 8.480786 70.753189 
vn 78.698341 8.480800 -52.180382 
vn 87.888489 8.893305 -34.419514 
vn 79.480270 8.480799 -50.981472 
vn 87.866264 9.305643 -34.367218 
vn -17.247810 10.541557 92.626427 
vn -44.326271 8.893305 83.332291 
vn -43.955700 9.305643 83.483429 
vn -44.326271 8.893305 83.332291 
vn -16.535339 10.953137 92.708588 
vn -17.247810 10.541557 92.626427 
vn 13.833820 11.775661 93.050186 
vn 13.833820 11.775661 93.050186 
vn 39.133984 11.775659 85.547165 
vn 40.017780 10.953133 85.247055 
vn 57.566448 8.480786 74.850922 
vn -16.535339 10.953137 92.708588 
vn 13.833820 11.775661 93.050186 
vn 13.833820 11.775661 93.050186 
vn 40.017780 10.953133 85.247055 
vn 58.883442 7.655292 73.909523 
vn 57.566448 8.480786 74.850922 
vn -64.623421 8.893309 68.795815 
vn -60.360058 8.480800 72.614632 
vn -64.327553 9.305647 69.018204 
vn -60.360058 8.480800 72.614632 
vn -59.807964 8.480800 73.070038 
vn -64.623421 8.893309 68.795815 
vn 63.599606 8.480786 69.797188 
vn 58.883442 7.655292 73.909523 
vn 57.566448 8.480786 74.850922 
vn 58.883442 7.655292 73.909523 
vn 63.068783 8.480786 70.277206 
vn 63.599606 8.480786 69.797188 
vn -43.955700 9.305643 83.483429 
vn -44.326271 8.893305 83.332291 
vn -59.807964 8.480800 73.070038 
vn -60.360058 8.480800 72.614632 
s on 
f 1//1 2//2 3//3 
f 2//2 4//4 3//3 
f 3//3 4//4 4//4 
f 4//4 4//4 4//4 
f 4//4 4//4 4//4 
f 4//4 5//5 4//4 
f 4//4 5//5 6//6 
f 5//5 5//5 6//6 
f 6//6 5//5 7//7 
f 5//5 8//8 7//7 
f 7//7 8//8 8//8 
f 8//8 9//9 8//8 
f 8//8 9//9 9//9 
f 9//9 10//10 9//9 
f 9//9 10//10 11//11 
f 10//10 11//11 11//11 
f 11//11 11//11 12//12 
f 11//11 12//12 12//12 
f 12//12 12//12 13//13 
f 12//12 14//14 13//13 
f 13//13 14//14 14//14 
f 14//14 15//15 14//14 
f 14//14 15//15 15//15 
f 15//15 16//16 15//15 
f 15//15 16//16 17//17 
f 16//16 17//17 17//17 
f 17//17 17//17 18//18 
f 17//17 18//18 18//18 
f 18//18 18//18 19//19 
f 18//18 20//20 19//19 
f 19//19 20//20 20//20 
f 20//20 21//21 20//20 
f 20//20 21//21 21//21 
f 21//21 22//22 21//21 
f 21//21 22//22 23//23 
f 22//22 23//23 23//23 
f 23//23 23//23 24//24 
f 23//23 24//24 24//24 
f 24//24 24//24 25//25 
f 24//24 26//26 25//25 
f 25//25 26//26 26//26 
f 26//26 27//27 26//26 
f 26//26 27//27 27//27 
f 27//27 28//28 27//27 
f 27//27 28//28 29//29 
f 28//28 29//29 29//29 
f 29//29 29//29 30//30 
f 29//29 30//30 30//30 
f 30//30 30//30 31//31 
f 30//30 32//32 31//31 
f 31//31 32//32 33//33 
f 32//32 33//33 33//33 
f 33//33 33//33 34//34 
f 33//33 34//34 34//34 
f 34//34 34//34 35//35 
f 34//34 36//36 35//35 
f 35//35 36//36 36//36 
f 36//36 37//37 36//36 
f 36//36 37//37 37//37 
f 37//37 38//38 37//37 
f 37//37 38//38 39//39 
f 38//38 40//40 39//39 
f 39//39 40//40 40//40 
f 40//40 40//40 40//40 
f 40//40 40//40 40//40 
f 40//40 41//41 40//40 
f 40//40 41//41 42//42 
f 41//41 43//43 42//42 
f 42//42 43//43 44//44 
f 43//43 44//44 44//44 
f 44//44 44//44 45//45 
f 44//44 45//45 45//45 
f 45//45 45//45 46//46 
f 45//45 47//47 46//46 
f 46//46 47//47 47//47 
f 47//47 48//48 47//47 
f 47//47 48//48 48//48 
f 48//48 49//49 48//48 
f 48//48 49//49 50//50 
f 49//49 50//50 50//50 
f 50//50 50//50 51//51 
f 50//50 51//51 51//51 
f 51//51 51//51 52//52 
f 51//51 53//53 52//52 
f 52//52 53//53 53//53 
f 53//53 54//54 53//53 
f 53//53 54//54 54//54 
f 54//54 55//55 54//54 
f 54//54 55//55 56//56 
f 55//55 56//56 56//56 
f 56//56 56//56 57//57 
f 56//56 57//57 57//57 
f 57//57 57//57 58//58 
f 57//57 59//59 58//58 
f 58//58 59//59 59//59 
f 59//59 60//60 59//59 
f 59//59 60//60 60//60 
f 60//60 61//61 60//60 
f 60//60 61//61 62//62 
f 61//61 62//62 62//62 
f 62//62 62//62 63//63 
f 62//62 63//63 63//63 
f 63//63 63//63 64//64 
f 63//63 65//65 64//64 
f 64//64 65//65 66//66 

